<?xml version="1.0" encoding="UTF-8" standalone="no"?>
<svg
   xmlns:dc="http://purl.org/dc/elements/1.1/"
   xmlns:cc="http://creativecommons.org/ns#"
   xmlns:rdf="http://www.w3.org/1999/02/22-rdf-syntax-ns#"
   xmlns:svg="http://www.w3.org/2000/svg"
   xmlns="http://www.w3.org/2000/svg"
   xmlns:xlink="http://www.w3.org/1999/xlink"
   xmlns:sodipodi="http://sodipodi.sourceforge.net/DTD/sodipodi-0.dtd"
   xmlns:inkscape="http://www.inkscape.org/namespaces/inkscape"
   version="1.1"
   id="svg842"
   width="265"
   height="265"
   viewBox="0 0 265 265"
   sodipodi:docname="me.qr.svg"
   inkscape:version="1.0.1 (3bc2e813f5, 2020-09-07)">
  <metadata
     id="metadata848">
    <rdf:RDF>
      <cc:Work
         rdf:about="">
        <dc:format>image/svg+xml</dc:format>
        <dc:type
           rdf:resource="http://purl.org/dc/dcmitype/StillImage" />
        <dc:title></dc:title>
      </cc:Work>
    </rdf:RDF>
  </metadata>
  <defs
     id="defs846" />
  <sodipodi:namedview
     pagecolor="#ffffff"
     bordercolor="#666666"
     borderopacity="1"
     objecttolerance="10"
     gridtolerance="10"
     guidetolerance="10"
     inkscape:pageopacity="0"
     inkscape:pageshadow="2"
     inkscape:window-width="1199"
     inkscape:window-height="729"
     id="namedview844"
     showgrid="false"
     inkscape:zoom="1.0207547"
     inkscape:cx="85.789309"
     inkscape:cy="109.0264"
     inkscape:window-x="26"
     inkscape:window-y="0"
     inkscape:window-maximized="0"
     inkscape:current-layer="g850" />
  <g
     inkscape:groupmode="layer"
     inkscape:label="Image"
     id="g850">
    <image
       width="265"
       height="265"
       preserveAspectRatio="none"
       style="image-rendering:optimizeSpeed"
       xlink:href="file:///G:/me.qr.png"
       id="image852"
       sodipodi:absref="G:\me.qr.png" />
    <path
       style="fill:#000000"
       d="M 20,227.5 V 210 H 37.5 55 V 227.5 245 H 37.5 20 Z m 30,0 V 215 H 37.5 25 V 227.5 240 H 37.5 50 Z m -20,0 V 220 h 7.5 7.5 v 7.5 7.5 H 37.5 30 Z m 30,10 V 230 h 2.5 2.5 v -2.5 -2.5 h 2.5 2.5 v 2.5 2.5 H 67.5 65 v 7.5 7.5 H 62.5 60 Z M 80,225 v -20 h -5 -5 v 2.5 2.5 H 65 60 V 207.5 205 H 55 50 V 202.5 200 H 52.5 55 V 197.5 195 H 52.5 50 V 192.5 190 H 47.5 45 v 7.5 7.5 h -5 -5 v -2.5 -2.5 h -5 -5 v 2.5 2.5 H 22.5 20 v -2.5 -2.5 h 2.5 2.5 v -2.5 -2.5 h 7.5 7.5 v -5 -5 H 32.5 25 v 2.5 2.5 H 22.5 20 V 187.5 185 H 22.5 25 V 182.5 180 H 22.5 20 v -2.5 -2.5 h 2.5 2.5 v 2.5 2.5 h 7.5 7.5 v 2.5 2.5 h 2.5 2.5 v -2.5 -2.5 h 5 5 V 177.5 175 H 45 35 v -5 -5 H 37.5 40 V 162.5 160 H 42.5 45 V 157.5 155 H 42.5 40 v -2.5 -2.5 h 2.5 2.5 v -2.5 -2.5 h -5 -5 v 2.5 2.5 h -5 -5 v 2.5 2.5 H 22.5 20 V 147.5 140 H 22.5 25 V 137.5 135 H 22.5 20 v -2.5 -2.5 h 2.5 2.5 v 2.5 2.5 h 2.5 2.5 v 2.5 2.5 H 27.5 25 v 2.5 2.5 h 5 5 V 137.5 130 H 32.5 30 V 127.5 125 H 32.5 35 V 122.5 120 H 32.5 30 v -2.5 -2.5 h 2.5 2.5 v 2.5 2.5 H 45 55 V 117.5 115 H 52.5 50 V 112.5 110 H 47.5 45 V 102.5 95 H 42.5 40 v 2.5 2.5 H 37.5 35 v 2.5 2.5 h 2.5 2.5 v 2.5 2.5 H 37.5 35 V 107.5 105 H 32.5 30 v 2.5 2.5 H 27.5 25 v 2.5 2.5 H 22.5 20 V 112.5 110 H 22.5 25 V 107.5 105 H 22.5 20 v -5 -5 h 5 5 V 92.5 90 H 32.5 35 V 87.5 85 H 42.5 50 V 82.5 80 H 47.5 45 V 77.5 75 H 47.5 50 V 72.5 70 H 52.5 55 V 72.5 75 H 57.5 60 V 57.5 40 H 62.5 65 V 35 30 H 62.5 60 V 25 20 H 72.5 85 v 5 5 H 82.5 80 V 32.5 35 H 77.5 75 V 32.5 30 H 77.5 80 V 27.5 25 h -5 -5 v 7.5 7.5 h 2.5 2.5 v 2.5 2.5 h 5 5 V 52.5 60 H 80 75 V 62.5 65 H 82.5 90 V 42.5 20 H 92.5 95 V 42.5 65 h 2.5 2.5 V 42.5 20 H 132.5 165 V 42.5 65 h 2.5 2.5 V 42.5 20 h 2.5 2.5 V 42.5 65 h 2.5 2.5 V 42.5 20 h 2.5 2.5 V 37.5 55 h 2.5 2.5 V 52.5 50 h 2.5 2.5 v 2.5 2.5 h 2.5 2.5 V 52.5 50 h 2.5 2.5 v 5 5 h 10 10 v 2.5 2.5 h 2.5 2.5 v 15 15 h -2.5 -2.5 v 2.5 2.5 H 222.5 220 V 97.5 95 H 217.5 215 V 87.5 80 h -2.5 -2.5 v 10 10 h 2.5 2.5 v 2.5 2.5 h -2.5 -2.5 v 2.5 2.5 h 2.5 2.5 v 2.5 2.5 h 2.5 2.5 v -2.5 -2.5 h 2.5 2.5 v -2.5 -2.5 h 2.5 2.5 v 10 10 h 2.5 2.5 v -2.5 -2.5 h 2.5 2.5 V 112.5 105 H 237.5 235 V 95 85 h 2.5 2.5 V 82.5 80 H 237.5 235 V 77.5 75 h 2.5 2.5 V 72.5 70 h 2.5 2.5 v 2.5 2.5 h -2.5 -2.5 v 2.5 2.5 h 2.5 2.5 v 2.5 2.5 h -2.5 -2.5 v 10 10 h 2.5 2.5 v 7.5 7.5 h -2.5 -2.5 v 12.5 12.5 h 2.5 2.5 v 2.5 2.5 h -2.5 -2.5 v 5 5 h 2.5 2.5 v 2.5 2.5 h -2.5 -2.5 v 10 10 h 2.5 2.5 v 5 5 h -5 -5 v -5 -5 h -2.5 -2.5 v 10 10 h -2.5 -2.5 v 2.5 2.5 h 5 5 v -5 -5 h 5 5 v 2.5 2.5 h -2.5 -2.5 v 10 10 h 2.5 2.5 v 10 10 h -5 -5 v -2.5 -2.5 h 2.5 2.5 v -5 -5 h -2.5 -2.5 v -5 -5 h -2.5 -2.5 v 12.5 12.5 h -2.5 -2.5 v -7.5 -7.5 h -5 -5 v 2.5 2.5 h 2.5 2.5 v 5 5 h -5 -5 v -7.5 -7.5 h -2.5 -2.5 v 7.5 7.5 h -2.5 -2.5 v -20 -20 h -2.5 -2.5 v 20 20 h -2.5 -2.5 v -20 -20 h -2.5 -2.5 v 20 20 h -2.5 -2.5 v -20 -20 h -2.5 -2.5 v 20 20 h -2.5 -2.5 v -20 -20 h -2.5 -2.5 v 20 20 H 132.5 100 V 225 205 H 97.5 95 v 20 20 H 92.5 90 V 225 205 H 87.5 85 v 20 20 H 82.5 80 Z m 80,-2.5 V 205 h -2.5 -2.5 v 15 15 H 132.5 110 v -15 -15 h -2.5 -2.5 v 17.5 17.5 h 27.5 27.5 z m -10,-5 V 205 h -2.5 -2.5 v 10 10 H 132.5 120 v -10 -10 h -2.5 -2.5 v 12.5 12.5 h 17.5 17.5 z m 65,10 V 225 h -2.5 -2.5 v 2.5 2.5 h 2.5 2.5 z m -75,-15 V 205 h -7.5 -7.5 v 7.5 7.5 h 7.5 7.5 z m -10,0 V 210 h 2.5 2.5 v 2.5 2.5 h -2.5 -2.5 z m 90,0 V 205 h -7.5 -7.5 v 7.5 7.5 h 7.5 7.5 z m -10,0 V 210 h 2.5 2.5 v 2.5 2.5 H 212.5 210 Z M 65,202.5 V 200 H 62.5 60 v 2.5 2.5 h 2.5 2.5 z m 140,-15 V 175 h 2.5 2.5 v 12.5 12.5 h 2.5 2.5 v -10 -10 h 2.5 2.5 v 10 10 h 2.5 2.5 v -10 -10 h 5 5 v -2.5 -2.5 h -5 -5 v -2.5 -2.5 h -2.5 -2.5 v -2.5 -2.5 h 2.5 2.5 v -7.5 -7.5 h -2.5 -2.5 v 7.5 7.5 h -2.5 -2.5 v -7.5 -7.5 h -2.5 -2.5 v 10 10 H 207.5 205 V 157.5 145 H 140 75 v 2.5 2.5 h 2.5 2.5 v 25 25 h 62.5 62.5 z m -115,5 V 190 H 87.5 85 V 187.5 185 H 87.5 90 V 182.5 180 H 87.5 85 v -2.5 -2.5 h 5 5 v 10 10 H 92.5 90 Z m 15,0 V 190 h -2.5 -2.5 v -2.5 -2.5 h 2.5 2.5 v -2.5 -2.5 h -2.5 -2.5 v -2.5 -2.5 h 2.5 2.5 v 2.5 2.5 h 2.5 2.5 v -2.5 -2.5 h 2.5 2.5 v 2.5 2.5 h -2.5 -2.5 v 2.5 2.5 h 2.5 2.5 v 2.5 2.5 h -2.5 -2.5 v 2.5 2.5 h -2.5 -2.5 z m 15,0 V 190 h 2.5 2.5 v -5 -5 h -2.5 -2.5 v -2.5 -2.5 h 2.5 2.5 v 2.5 2.5 h 5 5 v 5 5 h -5 -5 v 2.5 2.5 h -2.5 -2.5 z m 20,-7.5 v -10 h 2.5 2.5 v 2.5 2.5 h 2.5 2.5 v 2.5 2.5 h -2.5 -2.5 v 5 5 h -2.5 -2.5 z m 20,7.5 V 190 h -2.5 -2.5 v -2.5 -2.5 h 2.5 2.5 v -2.5 -2.5 h -2.5 -2.5 v -2.5 -2.5 h 2.5 2.5 v 2.5 2.5 h 2.5 2.5 v -2.5 -2.5 h 2.5 2.5 v 2.5 2.5 h -2.5 -2.5 v 2.5 2.5 h 2.5 2.5 v 2.5 2.5 h -2.5 -2.5 v 2.5 2.5 h -2.5 -2.5 z m 15,0 V 190 h 2.5 2.5 v 2.5 2.5 h -2.5 -2.5 z m 10,-2.5 v -5 h 5 5 v -5 -5 h 2.5 2.5 v 10 10 h -2.5 -2.5 v -2.5 -2.5 h -2.5 -2.5 v 2.5 2.5 h -2.5 -2.5 z m -10,-7.5 V 180 h 2.5 2.5 v 2.5 2.5 H 177.5 175 Z M 95,165 v -5 h -5 -5 v -5 -5 h 2.5 2.5 v 2.5 2.5 h 2.5 2.5 v -2.5 -2.5 h 2.5 2.5 v 2.5 2.5 h 5 5 v 7.5 7.5 h -2.5 -2.5 v -5 -5 h -2.5 -2.5 v 5 5 H 97.5 95 Z m 20,-5 v -10 h 2.5 2.5 v 2.5 2.5 h 2.5 2.5 v 2.5 2.5 h -2.5 -2.5 v 5 5 h -2.5 -2.5 z m 15,2.5 V 155 h 2.5 2.5 v 2.5 2.5 h 2.5 2.5 v -5 -5 h 2.5 2.5 v 2.5 2.5 h 2.5 2.5 v -2.5 -2.5 h 2.5 2.5 v 7.5 7.5 h -2.5 -2.5 v -2.5 -2.5 h -2.5 -2.5 v 5 5 h -2.5 -2.5 v -2.5 -2.5 h -2.5 -2.5 v 2.5 2.5 h -2.5 -2.5 z m 35,5 V 165 h -2.5 -2.5 v -2.5 -2.5 h 2.5 2.5 v -5 -5 h 2.5 2.5 v 2.5 2.5 h 2.5 2.5 v 2.5 2.5 h -2.5 -2.5 v 5 5 h -2.5 -2.5 z m 15,0 V 165 h 2.5 2.5 v -5 -5 h -2.5 -2.5 v -2.5 -2.5 h 2.5 2.5 v 2.5 2.5 h 5 5 v -2.5 -2.5 h 2.5 2.5 v 2.5 2.5 h -2.5 -2.5 v 5 5 h 2.5 2.5 v 2.5 2.5 h -2.5 -2.5 v -2.5 -2.5 h -5 -5 v 2.5 2.5 h -2.5 -2.5 z m -115,25 V 190 h 5 5 v -5 -5 H 72.5 70 V 177.5 175 H 72.5 75 V 172.5 170 H 72.5 70 v -5 -5 H 72.5 75 V 157.5 155 H 72.5 70 v 2.5 2.5 H 67.5 65 V 152.5 145 H 57.5 50 v 2.5 2.5 h 2.5 2.5 v 2.5 2.5 H 52.5 50 v 2.5 2.5 H 47.5 45 v 2.5 2.5 H 42.5 40 v 2.5 2.5 h 2.5 2.5 v -2.5 -2.5 h 2.5 2.5 v 2.5 2.5 H 52.5 55 V 167.5 165 H 52.5 50 v -2.5 -2.5 h 7.5 7.5 v 2.5 2.5 H 62.5 60 v 5 5 h 2.5 2.5 v 7.5 7.5 H 62.5 60 v 2.5 2.5 h 2.5 2.5 z m -10,-5 V 185 H 57.5 60 V 182.5 180 H 57.5 55 v 2.5 2.5 H 52.5 50 v 2.5 2.5 H 52.5 55 Z M 235,160 v -10 h 2.5 2.5 v -2.5 -2.5 h -2.5 -2.5 v 2.5 2.5 h -2.5 -2.5 v 10 10 h 2.5 2.5 z m -5,-17.5 V 140 h -2.5 -2.5 v 2.5 2.5 h 2.5 2.5 z M 60,132.5 V 125 H 52.5 45 v 7.5 7.5 h 7.5 7.5 z m -10,0 V 130 h 2.5 2.5 v 2.5 2.5 H 52.5 50 Z m 30,0 V 125 h 2.5 2.5 v -2.5 -2.5 h 60 60 V 97.5 75 h 2.5 2.5 V 72.5 70 h -25 -25 v -5 -5 h -7.5 -7.5 v 5 5 H 115 85 v 5 5 H 82.5 80 V 75 70 H 77.5 75 V 67.5 65 h -5 -5 v 2.5 2.5 h 2.5 2.5 v 5 5 H 65 60 V 82.5 85 H 55 50 V 87.5 90 H 47.5 45 v 2.5 2.5 h 2.5 2.5 v 2.5 2.5 h 2.5 2.5 v 2.5 2.5 H 52.5 50 v 2.5 2.5 h 5 5 v 2.5 2.5 h 2.5 2.5 v 7.5 7.5 h 2.5 2.5 v 2.5 2.5 h 2.5 2.5 v 2.5 2.5 h 2.5 2.5 z m -5,-10 V 120 H 72.5 70 V 117.5 115 H 67.5 65 v -2.5 -2.5 h 2.5 2.5 v 2.5 2.5 h 5 5 v -2.5 -2.5 h 2.5 2.5 v 2.5 2.5 H 82.5 80 v 5 5 H 77.5 75 Z M 90,95 V 75 h 5 5 v 2.5 2.5 h 2.5 2.5 v 15 15 h -2.5 -2.5 v 2.5 2.5 h -5 -5 z m 10,0 V 80 H 97.5 95 v 15 15 h 2.5 2.5 z m 10,0 V 75 h 5 5 v 2.5 2.5 h -2.5 -2.5 v 5 5 h 2.5 2.5 v 2.5 2.5 h -2.5 -2.5 v 7.5 7.5 h 2.5 2.5 v 2.5 2.5 h -5 -5 z m 15,0 V 75 h 2.5 2.5 v 2.5 2.5 h 2.5 2.5 v 2.5 2.5 h 2.5 2.5 v -5 -5 h 2.5 2.5 v 20 20 H 142.5 140 V 102.5 90 H 137.5 135 V 87.5 85 h -2.5 -2.5 v 15 15 h -2.5 -2.5 z m 25,0 V 75 h 2.5 2.5 v 20 20 h -2.5 -2.5 z m 10,12.5 V 100 h 2.5 2.5 v -5 -5 h 2.5 2.5 v -5 -5 h -5 -5 V 77.5 75 h 7.5 7.5 v 7.5 7.5 h -2.5 -2.5 v 5 5 h -2.5 -2.5 v 5 5 h 5 5 v 2.5 2.5 h -7.5 -7.5 z m 30,5 V 110 h 2.5 2.5 v 2.5 2.5 H 192.5 190 Z M 60,102.5 V 100 H 57.5 55 V 97.5 95 H 52.5 50 V 92.5 90 h 5 5 V 87.5 85 h 5 5 V 82.5 80 h 2.5 2.5 v 5 5 h 5 5 V 92.5 95 H 82.5 80 v 5 5 H 77.5 75 V 102.5 100 H 72.5 70 v 2.5 2.5 h -5 -5 z m 10,-5 V 95 H 72.5 75 V 92.5 90 H 72.5 70 V 92.5 95 H 67.5 65 v 2.5 2.5 H 67.5 70 Z M 185,90 V 75 h 5 5 v 2.5 2.5 h 2.5 2.5 V 92.5 105 h -2.5 -2.5 v -5 -5 h -2.5 -2.5 v 5 5 h -2.5 -2.5 z m 10,-5 v -5 h -2.5 -2.5 v 5 5 h 2.5 2.5 z M 150,67.5 V 65 h 2.5 2.5 v 2.5 2.5 h -2.5 -2.5 z m -55,65 V 125 H 92.5 90 v 7.5 7.5 h 2.5 2.5 z m 10,0 V 125 h -2.5 -2.5 v 7.5 7.5 h 2.5 2.5 z m 10,0 V 125 h -2.5 -2.5 v 7.5 7.5 h 2.5 2.5 z m 25,0 V 125 h -7.5 -7.5 v 7.5 7.5 h 7.5 7.5 z m -10,0 V 130 h 2.5 2.5 v 2.5 2.5 h -2.5 -2.5 z m 25,0 V 125 h -2.5 -2.5 v 7.5 7.5 h 2.5 2.5 z m 10,0 V 125 h -2.5 -2.5 v 7.5 7.5 h 2.5 2.5 z m 10,0 V 125 h -2.5 -2.5 v 7.5 7.5 h 2.5 2.5 z m 10,0 V 125 h -2.5 -2.5 v 7.5 7.5 h 2.5 2.5 z m 10,0 V 125 h -2.5 -2.5 v 7.5 7.5 h 2.5 2.5 z m 25,0 V 125 h -7.5 -7.5 v 7.5 7.5 h 7.5 7.5 z m -10,0 V 130 h 2.5 2.5 v 2.5 2.5 h -2.5 -2.5 z m 20,0 V 130 h -2.5 -2.5 v 2.5 2.5 h 2.5 2.5 z m -190,-5 V 125 H 37.5 35 v 2.5 2.5 h 2.5 2.5 z m 175,-10 V 115 h -2.5 -2.5 v 2.5 2.5 h 2.5 2.5 z m 10,0 V 115 h -2.5 -2.5 v 2.5 2.5 h 2.5 2.5 z M 40,92.5 V 90 H 37.5 35 v 2.5 2.5 h 2.5 2.5 z m 185,-5 V 80 h -2.5 -2.5 v 7.5 7.5 h 2.5 2.5 z M 55,77.5 V 75 H 52.5 50 v 2.5 2.5 h 2.5 2.5 z m 170,-5 V 70 H 222.5 220 V 67.5 65 h -2.5 -2.5 v 5 5 h 5 5 z M 110,47.5 V 30 H 132.5 155 V 42.5 55 h 2.5 2.5 V 40 25 H 132.5 105 v 20 20 h 2.5 2.5 z m 10,5 V 40 h 12.5 12.5 v 7.5 7.5 h 2.5 2.5 V 45 35 H 132.5 115 v 15 15 h 2.5 2.5 z m 70,10 V 60 h -2.5 -2.5 v 2.5 2.5 h 2.5 2.5 z m 10,0 V 60 h -2.5 -2.5 v 2.5 2.5 h 2.5 2.5 z M 70,55 V 50 H 67.5 65 v 5 5 h 2.5 2.5 z m 70,-2.5 V 45 h -7.5 -7.5 v 7.5 7.5 h 7.5 7.5 z m -10,0 V 50 h 2.5 2.5 v 2.5 2.5 h -2.5 -2.5 z m -50,0 V 50 H 77.5 75 v 2.5 2.5 h 2.5 2.5 z m -10,185 V 235 h 2.5 2.5 v 2.5 2.5 H 72.5 70 Z m -10,-20 V 215 h 2.5 2.5 v 2.5 2.5 H 62.5 60 Z m -35,-50 V 165 H 22.5 20 v -2.5 -2.5 h 5 5 v 5 5 H 27.5 25 Z m 0,-85 V 80 H 27.5 30 V 77.5 75 h 5 5 V 77.5 80 H 35 30 V 82.5 85 H 27.5 25 Z m -5,-15 V 60 h 7.5 7.5 v 2.5 2.5 h 5 5 V 62.5 60 h 5 5 V 62.5 65 H 50 45 V 67.5 70 H 40 35 V 67.5 65 h -5 -5 v 5 5 H 22.5 20 Z m 215,-5 V 60 h 5 5 v 2.5 2.5 h -5 -5 z M 20,37.5 V 20 H 37.5 55 V 37.5 55 H 37.5 20 Z m 30,0 V 25 H 37.5 25 V 37.5 50 H 37.5 50 Z m -20,0 V 30 H 37.5 45 V 37.5 45 H 37.5 30 Z m 180,0 V 20 H 227.5 245 V 37.5 55 H 227.5 210 Z m 30,0 V 25 H 227.5 215 V 37.5 50 h 12.5 12.5 z m -20,0 V 30 h 7.5 7.5 v 7.5 7.5 h -7.5 -7.5 z m -30,5 V 40 h 2.5 2.5 V 32.5 25 h 2.5 2.5 V 22.5 20 h 2.5 2.5 v 2.5 2.5 h -2.5 -2.5 v 5 5 h 2.5 2.5 v 5 5 h -7.5 -7.5 z"
       id="path854" />
  </g>
</svg>
